<svg id="svg" version="1.1" xmlns="http://www.w3.org/2000/svg" viewBox="0 0 126 105" style="display: block;"><path d="M0 0 C41.58 0 83.16 0 126 0 C126 34.65 126 69.3 126 105 C84.42 105 42.84 105 0 105 C0 70.35 0 35.7 0 0 Z " transform="translate(0,0)" style="fill: #F1F1F1;"/><path d="M0 0 C41.58 0 83.16 0 126 0 C126 34.65 126 69.3 126 105 C84.42 105 42.84 105 0 105 C0 70.35 0 35.7 0 0 Z M26 9 C24.9171875 9.12375 24.9171875 9.12375 23.8125 9.25 C19.38523916 10.43060289 16.15793923 12.69486869 13 16 C11.784072 18.42364027 10.93157937 20.83034264 10.078125 23.40234375 C8.50640868 27.18926894 6.00759929 29.95851791 3.29296875 32.9921875 C1.74190415 34.92463898 1.74190415 34.92463898 2.30078125 37.2578125 C2.64689453 38.12019531 2.64689453 38.12019531 3 39 C3.598125 37.88625 4.19625 36.7725 4.8125 35.625 C6.37695617 32.71187472 7.09907498 31.93395001 10 30 C10.99 30 11.98 30 13 30 C13 31.33333333 13 32.66666667 13 34 C13.83144531 34.20496094 14.66289062 34.40992187 15.51953125 34.62109375 C16.60621094 34.89050781 17.69289063 35.15992187 18.8125 35.4375 C19.89144531 35.70433594 20.97039063 35.97117187 22.08203125 36.24609375 C24.0740843 36.76077412 26.04811524 37.34937175 28 38 C30.16715557 37.12516085 30.16715557 37.12516085 32 36 C30 39 30 39 28.0546875 39.51171875 C27.33539062 39.56972656 26.61609375 39.62773438 25.875 39.6875 C23.956875 39.8421875 23.956875 39.8421875 22 40 C21.67 39.01 21.34 38.02 21 37 C19.741875 36.979375 18.48375 36.95875 17.1875 36.9375 C16.47980469 36.92589844 15.77210937 36.91429687 15.04296875 36.90234375 C12.79694539 36.91736783 12.79694539 36.91736783 10 38 C9.67 37.34 9.34 36.68 9 36 C8.95758277 38.33294775 8.95907063 40.66702567 9 43 C9.33 43.33 9.66 43.66 10 44 C9.34 44 8.68 44 8 44 C8 40.7 8 37.4 8 34 C4.66916725 36.70458033 4.66916725 36.70458033 4.625 40.4375 C5.00774336 44.07356189 5.51807907 45.4146657 8 48 C7.01 47.67 6.02 47.34 5 47 C5.495 48.134375 5.99 49.26875 6.5 50.4375 C9.37903645 58.9523861 8.82354643 69.31711355 7 78 C5.93465142 87.25782448 5.93465142 87.25782448 8.9375 95.6875 C17.22377495 101.94448313 26.98935119 101.92635855 37 101 C41.10355818 100.27584267 45.02579518 99.24308718 49 98 C55.66873835 96.04536979 55.66873835 96.04536979 58.08203125 95.71484375 C66.12824879 94.55394669 72.78767963 90.83530351 79.87695312 87.09228516 C81.97498067 86.01287218 84.09363727 85.00336946 86.234375 84.01171875 C97.97846096 78.53206156 106.95526679 72.98815566 111.921875 60.44921875 C113.34668306 57.21242652 115.32029063 55.26744639 118 53 C121.80048288 49.41065506 123.13953798 46.93105814 123.375 41.6875 C123.33604036 38.27018339 122.93598343 36.26511528 120.8125 33.5625 C118.30063815 30.88752032 118.30063815 30.88752032 115.57421875 30.32421875 C111.67535744 28.31858296 110.71930556 25.14988822 109 21.25 C105.69098029 13.90559039 102.87918406 7.79915657 94.96279907 4.60058594 C91.65058877 3.58710119 88.34624407 3.5729786 84.91796875 3.6015625 C84.15392731 3.59751404 83.38988586 3.59346558 82.60269165 3.58929443 C80.1305656 3.58335641 77.65951706 3.60223185 75.1875 3.625 C74.34617523 3.62832336 73.50485046 3.63164673 72.63803101 3.6350708 C48.27385838 2.52374896 48.27385838 2.52374896 26 9 Z " transform="translate(0,0)" style="fill: #111111;"/><path d="M0 0 C3.04317386 -0.13558695 6.08025562 -0.23437239 9.125 -0.3125 C10.40890625 -0.3753418 10.40890625 -0.3753418 11.71875 -0.43945312 C16.14016857 -0.52448041 18.45579247 -0.33011411 22.31640625 2.01171875 C25.5700135 5.23164831 27.68730145 9.10870395 29.8125 13.125 C30.20630859 13.84042969 30.60011719 14.55585938 31.00585938 15.29296875 C32.58458166 18.19045218 33.95320457 20.8596137 35 24 C35.928125 24.45375 36.85625 24.9075 37.8125 25.375 C41.45009039 27.22945784 42.9912235 28.44601081 45 32 C45.68293653 36.22039428 45.54644539 39.76330781 43.8125 43.6875 C38.03748489 51.05562273 38.03748489 51.05562273 35.4765625 53.38671875 C33.68701891 55.34196082 32.90785015 57.25073871 31.875 59.6875 C26.46442997 70.61970748 16.67450008 75.04281362 6.13916016 79.97363281 C3.98626084 81.00659204 1.87334544 82.09626433 -0.23828125 83.2109375 C-6.61469737 86.56203034 -12.55644123 89.61986228 -19.77734375 90.64453125 C-22.15048846 91.02406757 -24.23821437 91.69362425 -26.5 92.5 C-37.86141605 96.39251993 -52.7707246 98.86179572 -64.2265625 94.01171875 C-67.53033769 92.12696594 -69.67151963 90.55125483 -71 87 C-71.54620451 81.52510307 -71.62726951 75.98676792 -70.4921875 70.58203125 C-68.69352852 61.14620914 -69.16061777 50.79858427 -73 42 C-71.02 42.66 -69.04 43.32 -67 44 C-67 44.66 -67 45.32 -67 46 C-65.515 45.505 -65.515 45.505 -64 45 C-63.96132813 46.57587891 -63.96132813 46.57587891 -63.921875 48.18359375 C-63.74629891 59.74180623 -63.74629891 59.74180623 -59 70 C-49.6682675 76.8811384 -35.14079234 75.34814976 -24 75 C-22.515 74.97292969 -22.515 74.97292969 -21 74.9453125 C-9.3934913 74.37173504 3.50875473 69.21969915 11.9609375 61.12109375 C13.73598288 59.14063918 15.37930345 57.1080943 17 55 C17.83724609 53.97132812 17.83724609 53.97132812 18.69140625 52.921875 C21.71825677 49.10002037 23.7969395 45.812242 25 41 C26.98 41 28.96 41 31 41 C31 40.34 31 39.68 31 39 C29.824375 38.566875 29.824375 38.566875 28.625 38.125 C26 37 26 37 24 35 C24 33.68 24 32.36 24 31 C23.34 30.67 22.68 30.34 22 30 C22.66 29.34 23.32 28.68 24 28 C30.01220483 28.32793845 30.01220483 28.32793845 32.7109375 30.1640625 C34.59313992 32.84477504 34.2917263 34.95648467 34.1875 38.1875 C34.14689453 39.81751953 34.14689453 39.81751953 34.10546875 41.48046875 C34.07066406 42.31191406 34.03585938 43.14335938 34 44 C36.46672109 40.29991837 36.670778 37.29297922 36 33 C34.07195216 29.58883844 32.68392385 28.3122261 29.125 26.6875 C23.00646554 25.34142242 20.27407269 25.78125548 14.92578125 29.08984375 C11.36836754 30.77113664 7.8081912 30.86129184 4 30 C0.9375 27.5 0.9375 27.5 -1 25 C2.63 25 6.26 25 10 25 C9.54160516 19.92964774 9.54160516 19.92964774 6.125 17.6875 C0.61786374 14.90566115 -5.62386051 15.0710308 -11.484375 16.68359375 C-13.35421833 17.37649669 -15.1834677 18.17741933 -17 19 C-18 17 -18 17 -17.1875 14.0625 C-16 11 -16 11 -14 8 C-5.27821073 6.31923853 2.80127017 9.20084678 10 14 C8.66144944 13.21718695 7.32926356 12.42348123 6 11.625 C5.2575 11.18414062 4.515 10.74328125 3.75 10.2890625 C3.1725 9.86367187 2.595 9.43828125 2 9 C2 8.34 2 7.68 2 7 C6.12751449 7.60698743 9.3321148 9.03810791 13 11 C13.33 10.34 13.66 9.68 14 9 C12.42065361 8.01441551 10.83634827 7.03677459 9.25 6.0625 C8.36828125 5.51722656 7.4865625 4.97195312 6.578125 4.41015625 C4.31600083 3.17284288 2.51433675 2.46409487 0 2 C0 1.34 0 0.68 0 0 Z " transform="translate(78,5)" style="fill: #F0F0F0;"/><path d="M0 0 C3.70344028 1.23448009 5.30250982 3.23334341 8 6 C8.99 6.495 8.99 6.495 10 7 C10 7.66 10 8.32 10 9 C8.02 9 6.04 9 4 9 C4.12375 9.680625 4.2475 10.36125 4.375 11.0625 C3.88495562 14.90118095 2.27974994 16.34026289 -0.30078125 19.11328125 C-1.98893806 20.98771743 -3.38044978 22.92613455 -4.8125 25 C-10.81665963 33.04184075 -18.83784284 37.33226048 -28 41 C-29.485 41.61875 -29.485 41.61875 -31 42.25 C-44.9099029 45.72747573 -65.36694026 46.15218092 -78.625 40.4375 C-84.69983707 34.2027988 -85.54310845 27.42768602 -85.48583984 18.97167969 C-85.25724984 13.05077777 -83.79251709 8.18610317 -81 3 C-80.34 3 -79.68 3 -79 3 C-78.67 5.97 -78.34 8.94 -78 12 C-73.6960081 13.74849671 -69.35249409 15.3770361 -65 17 C-65.33 17.99 -65.66 18.98 -66 20 C-66.99 20.33 -67.98 20.66 -69 21 C-69 20.34 -69 19.68 -69 19 C-70.98 18.67 -72.96 18.34 -75 18 C-75 20.31 -75 22.62 -75 25 C-73.68 25 -72.36 25 -71 25 C-70.67 24.01 -70.34 23.02 -70 22 C-69.67 22.99 -69.34 23.98 -69 25 C-65.37 25 -61.74 25 -58 25 C-58 23.02 -58 21.04 -58 19 C-55.69 19 -53.38 19 -51 19 C-52.32 19.33 -53.64 19.66 -55 20 C-55 21.98 -55 23.96 -55 26 C-52.36 26 -49.72 26 -47 26 C-47 23.69 -47 21.38 -47 19 C-47.66 18.67 -48.32 18.34 -49 18 C-48.18402344 17.87625 -47.36804687 17.7525 -46.52734375 17.625 C-38.10624933 16.15886822 -30.19605695 13.88428442 -22.125 11.0625 C-21.16327881 10.72669922 -20.20155762 10.39089844 -19.21069336 10.04492188 C-13.94657374 8.16523624 -8.83226191 6.11063886 -3.77294922 3.73217773 C-2 3 -2 3 0 3 C0 2.01 0 1.02 0 0 Z " transform="translate(99,37)" style="fill: #202020;"/><path d="M0 0 C0.33 0 0.66 0 1 0 C1 19.8 1 39.6 1 60 C-28.04 60 -57.08 60 -87 60 C-87 59.67 -87 59.34 -87 59 C-86.26587891 58.86013672 -85.53175781 58.72027344 -84.77539062 58.57617188 C-70.95053898 55.88391836 -58.12334195 53.23440612 -45.90087891 46.08398438 C-43.82283134 44.89896881 -41.70961975 43.81244153 -39.57421875 42.734375 C-27.54470958 36.65026178 -18.95992237 31.86348423 -12.88769531 19.48779297 C-10.65736663 14.9878297 -8.2753723 11.83523022 -4.4765625 8.49609375 C-2.03077603 6.01795561 -1.12964538 3.25603667 0 0 Z " transform="translate(125,45)" style="fill: #000000;"/><path d="M0 0 C0.75 1.5625 0.75 1.5625 1 4 C-0.86895266 7.88167092 -2.93034344 11.01142304 -5.75 14.25 C-8.3166189 16.79478405 -8.3166189 16.79478405 -8 20 C-7.1028125 18.329375 -7.1028125 18.329375 -6.1875 16.625 C-4.62304383 13.71187472 -3.90092502 12.93395001 -1 11 C1.69921875 10.5859375 1.69921875 10.5859375 4.6875 10.375 C5.68136719 10.30023438 6.67523437 10.22546875 7.69921875 10.1484375 C8.45847656 10.09945313 9.21773437 10.05046875 10 10 C10 10.33 10 10.66 10 11 C7.36 11.66 4.72 12.32 2 13 C2.8360425 15.25759396 2.8360425 15.25759396 5.3984375 15.81640625 C6.38070313 16.06261719 7.36296875 16.30882813 8.375 16.5625 C11.29285972 17.3054379 14.14248391 18.04749464 17 19 C19.14255793 18.61067144 19.14255793 18.61067144 21 18 C20.34 19.32 19.68 20.64 19 22 C16.36 22 13.72 22 11 22 C10.67 21.34 10.34 20.68 10 20 C6.37 20 2.74 20 -1 20 C-1.33 21.65 -1.66 23.3 -2 25 C-1.01 25.33 -0.02 25.66 1 26 C0.34 26.33 -0.32 26.66 -1 27 C-1.66 26.67 -2.32 26.34 -3 26 C-3.4140625 23.93359375 -3.4140625 23.93359375 -3.625 21.4375 C-3.69976563 20.61121094 -3.77453125 19.78492187 -3.8515625 18.93359375 C-3.92503906 17.97646484 -3.92503906 17.97646484 -4 17 C-5.52491998 20.04983996 -5.23562548 22.6423369 -5 26 C-3.72840348 27.85602615 -3.72840348 27.85602615 -2 29 C-1.34 29.66 -0.68 30.32 0 31 C-1.65 30.67 -3.3 30.34 -5 30 C-4.505 30.969375 -4.01 31.93875 -3.5 32.9375 C-0.39549587 41.07950139 -1.2591588 51.64666122 -3 60 C-3.16449228 62.32985781 -3.26468945 64.66483206 -3.3125 67 C-3.34988281 68.19625 -3.38726563 69.3925 -3.42578125 70.625 C-2.9184648 74.64629735 -1.86493277 76.18559514 1 79 C8.78023098 83.95566887 20.7008107 82.93515105 29.453125 81.390625 C32.33729585 80.68045228 35.16559597 79.88657014 38 79 C44.66873835 77.04536979 44.66873835 77.04536979 47.08203125 76.71484375 C55.12529929 75.55437224 61.785286 71.83786777 68.87255859 68.09667969 C70.98478752 67.00784192 73.11735131 65.98383993 75.26953125 64.9765625 C88.40683673 58.79555795 96.14709304 52.77154579 102 39 C102.66 39 103.32 39 104 39 C104.37125 38.13375 104.37125 38.13375 104.75 37.25 C106.17288843 34.68880083 107.9333048 33.0666952 110 31 C111.04349839 29.36021682 112.05607981 27.69905634 113 26 C113.66 26.33 114.32 26.66 115 27 C112.88965162 31.83621504 110.77501701 35.42517375 107.125 39.25 C103.92540905 42.65544699 102.01483526 45.79426411 100.125 50.0625 C94.65047841 61.53430916 83.19352804 66.43242313 72.30175781 71.84130859 C70.02120911 72.98932346 67.77305786 74.18723826 65.5234375 75.39453125 C40.99607867 88.23616328 15.91955544 87.53638856 -11 87 C-11.20943037 77.6723017 -11.36889232 68.34542429 -11.46630955 59.01587963 C-11.51308952 54.68266885 -11.57643112 50.3510776 -11.67895508 46.01879883 C-11.77745169 41.83001862 -11.83070163 37.64278586 -11.85389519 33.45293617 C-11.87040114 31.86248749 -11.90263442 30.27211434 -11.95157051 28.68233299 C-12.19528173 20.42931926 -12.06041658 14.33866878 -6.57006836 7.62231445 C-5.06457326 6.06408625 -3.54402508 4.52005828 -2 3 C-1.34 2.01 -0.68 1.02 0 0 Z " transform="translate(11,18)" style="fill: #141414;"/><path d="M0 0 C3.04317386 -0.13558695 6.08025562 -0.23437239 9.125 -0.3125 C10.40890625 -0.3753418 10.40890625 -0.3753418 11.71875 -0.43945312 C16.16655306 -0.5249878 18.46269542 -0.32765536 22.34375 2.0390625 C25.35310829 5.39361189 27.37547243 8.67677446 29.375 12.6875 C29.90673828 13.70166992 29.90673828 13.70166992 30.44921875 14.73632812 C33 19.68523769 33 19.68523769 33 22 C30.03 22.495 30.03 22.495 27 23 C27.66 23.66 28.32 24.32 29 25 C28.43152344 25.02578125 27.86304688 25.0515625 27.27734375 25.078125 C23.13718749 25.38224332 19.99749965 25.7335767 16.5 28.0625 C13.04834627 30.24587166 10.14616763 30.63213565 6.08984375 30.47265625 C2.71230943 29.70876531 1.05786541 27.65531021 -1 25 C2.63 25 6.26 25 10 25 C9.54160516 19.92964774 9.54160516 19.92964774 6.125 17.6875 C0.61786374 14.90566115 -5.62386051 15.0710308 -11.484375 16.68359375 C-13.35421833 17.37649669 -15.1834677 18.17741933 -17 19 C-18 17 -18 17 -17.1875 14.0625 C-16 11 -16 11 -14 8 C-5.27821073 6.31923853 2.80127017 9.20084678 10 14 C8.66144944 13.21718695 7.32926356 12.42348123 6 11.625 C5.2575 11.18414062 4.515 10.74328125 3.75 10.2890625 C3.1725 9.86367187 2.595 9.43828125 2 9 C2 8.34 2 7.68 2 7 C6.12751449 7.60698743 9.3321148 9.03810791 13 11 C13.33 10.34 13.66 9.68 14 9 C12.42065361 8.01441551 10.83634827 7.03677459 9.25 6.0625 C8.36828125 5.51722656 7.4865625 4.97195312 6.578125 4.41015625 C4.31600083 3.17284288 2.51433675 2.46409487 0 2 C0 1.34 0 0.68 0 0 Z " transform="translate(78,5)" style="fill: #F2F2F2;"/><path d="M0 0 C9.57 0 19.14 0 29 0 C29 12.87 29 25.74 29 39 C28.34 37.68 27.68 36.36 27 35 C25.95681006 33.69601257 24.8700404 32.42610324 23.75 31.1875 C23.12738281 30.48496094 22.50476563 29.78242188 21.86328125 29.05859375 C20.73059404 27.80717622 19.58527633 26.56684416 18.41796875 25.34765625 C15.1502181 21.8212446 13.14459543 18.37669737 11.125 14 C8.69010786 8.83880575 6.04158548 5.67245624 1.5390625 2.20703125 C1.03117187 1.80871094 0.52328125 1.41039063 0 1 C0 0.67 0 0.34 0 0 Z " transform="translate(97,0)" style="fill: #000000;"/><path d="M0 0 C14.85 0 29.7 0 45 0 C45 0.33 45 0.66 45 1 C43.98421875 1.15855469 42.9684375 1.31710938 41.921875 1.48046875 C33.05440408 2.94973149 25.11887023 4.97862209 17 9 C16.34 9.29519531 15.68 9.59039062 15 9.89453125 C13.11470697 10.79350252 13.11470697 10.79350252 11 13 C10.41746981 15.14477026 10.10149334 17.27690861 9.76171875 19.47265625 C8.2655642 24.43682031 4.5217959 28.29243904 1 32 C0.67 32 0.34 32 0 32 C0 21.44 0 10.88 0 0 Z " transform="translate(0,0)" style="fill: #000000;"/><path d="M0 0 C1.65978256 2.48967383 2.85871065 4.72325252 4.0625 7.4375 C4.40410156 8.19933594 4.74570313 8.96117187 5.09765625 9.74609375 C7.85298326 16.62844737 7.46460099 23.98793251 6.5 31.25 C5.98744431 35.41074617 5.81883089 39.56143817 5.75 43.75 C5.72421875 45.00296875 5.6984375 46.2559375 5.671875 47.546875 C6.0303443 51.31933762 6.62104159 53.07639884 9 56 C11.45192311 57.64562546 11.45192311 57.64562546 14.1875 58.8125 C15.08855469 59.23144531 15.98960938 59.65039062 16.91796875 60.08203125 C17.60503906 60.38496094 18.29210937 60.68789062 19 61 C19 61.33 19 61.66 19 62 C12.73 62 6.46 62 0 62 C0 41.54 0 21.08 0 0 Z " transform="translate(0,43)" style="fill: #000000;"/><path d="M0 0 C0 0.33 0 0.66 0 1 C-4.95 1 -9.9 1 -15 1 C-15 1.66 -15 2.32 -15 3 C-13.92685547 3.15275391 -13.92685547 3.15275391 -12.83203125 3.30859375 C-9.65458961 4.08432778 -7.45238165 5.32984083 -4.6875 7.0625 C-3.80449219 7.61035156 -2.92148438 8.15820312 -2.01171875 8.72265625 C-1.34785156 9.14417969 -0.68398437 9.56570313 0 10 C-0.33 10.99 -0.66 11.98 -1 13 C-5.03520597 11.41037341 -9.01811282 9.71767682 -13 8 C-13 8.66 -13 9.32 -13 10 C-12.071875 10.268125 -11.14375 10.53625 -10.1875 10.8125 C-7.23759634 11.91148371 -5.94384814 12.62418561 -4 15 C-4.33 15.66 -4.66 16.32 -5 17 C-5.66 16.401875 -6.32 15.80375 -7 15.1875 C-14.17186714 9.95801354 -21.36388696 9.41741213 -30 9 C-30 8.67 -30 8.34 -30 8 C-25.38 8 -20.76 8 -16 8 C-16 7.34 -16 6.68 -16 6 C-18.89589652 5.97293555 -21.79153795 5.95312971 -24.6875 5.9375 C-25.50412109 5.92912109 -26.32074219 5.92074219 -27.16210938 5.91210938 C-28.35610352 5.90727539 -28.35610352 5.90727539 -29.57421875 5.90234375 C-30.30213623 5.89710693 -31.03005371 5.89187012 -31.7800293 5.88647461 C-34.05247311 5.94702774 -34.05247311 5.94702774 -36.4453125 6.5 C-39.13192432 7.02582005 -41.56564476 7.1136512 -44.30078125 7.09765625 C-45.27724609 7.09443359 -46.25371094 7.09121094 -47.25976562 7.08789062 C-48.26716797 7.07951172 -49.27457031 7.07113281 -50.3125 7.0625 C-51.33923828 7.05798828 -52.36597656 7.05347656 -53.42382812 7.04882812 C-55.94927882 7.03708184 -58.47460905 7.02065565 -61 7 C-61 6.67 -61 6.34 -61 6 C-62.65 5.67 -64.3 5.34 -66 5 C-62.60220343 1.60220343 -57.88522864 1.91903276 -53.25 1.375 C-51.5786499 1.17716919 -51.5786499 1.17716919 -49.87353516 0.9753418 C-33.31584294 -0.74677397 -16.62209018 -0.25728747 0 0 Z " transform="translate(93,4)" style="fill: #B3B3B3;"/><path d="M0 0 C0.75 1.5625 0.75 1.5625 1 4 C-0.86895266 7.88167092 -2.93034344 11.01142304 -5.75 14.25 C-8.3166189 16.79478405 -8.3166189 16.79478405 -8 20 C-7.1028125 18.329375 -7.1028125 18.329375 -6.1875 16.625 C-4.62304383 13.71187472 -3.90092502 12.93395001 -1 11 C1.69921875 10.5859375 1.69921875 10.5859375 4.6875 10.375 C5.68136719 10.30023438 6.67523437 10.22546875 7.69921875 10.1484375 C8.45847656 10.09945313 9.21773437 10.05046875 10 10 C10 10.33 10 10.66 10 11 C7.36 11.66 4.72 12.32 2 13 C2.8360425 15.25759396 2.8360425 15.25759396 5.3984375 15.81640625 C6.38070313 16.06261719 7.36296875 16.30882813 8.375 16.5625 C11.29285972 17.3054379 14.14248391 18.04749464 17 19 C19.14255793 18.61067144 19.14255793 18.61067144 21 18 C20.34 19.32 19.68 20.64 19 22 C16.36 22 13.72 22 11 22 C10.67 21.34 10.34 20.68 10 20 C6.37 20 2.74 20 -1 20 C-1.33 21.65 -1.66 23.3 -2 25 C-1.01 25.33 -0.02 25.66 1 26 C0.34 26.33 -0.32 26.66 -1 27 C-1.66 26.67 -2.32 26.34 -3 26 C-3.4140625 23.93359375 -3.4140625 23.93359375 -3.625 21.4375 C-3.69976563 20.61121094 -3.77453125 19.78492187 -3.8515625 18.93359375 C-3.92503906 17.97646484 -3.92503906 17.97646484 -4 17 C-5.52491998 20.04983996 -5.23562548 22.6423369 -5 26 C-3.72840348 27.85602615 -3.72840348 27.85602615 -2 29 C-1.34 29.66 -0.68 30.32 0 31 C-1.65 30.67 -3.3 30.34 -5 30 C-4.505 30.969375 -4.01 31.93875 -3.5 32.9375 C-1.77715904 37.48547353 -1.6957447 41.82297625 -1.6875 46.625 C-1.68234375 47.35323975 -1.6771875 48.08147949 -1.671875 48.83178711 C-1.72823479 53.25250828 -2.35164375 56.83642286 -4 61 C-4.33 61 -4.66 61 -5 61 C-4.95359375 59.68386719 -4.9071875 58.36773437 -4.859375 57.01171875 C-4.6188031 47.21074493 -4.60981518 38.98866309 -9 30 C-11.38928264 24.59628191 -12.28867678 19.84098471 -11 14 C-8.40732145 9.92057419 -5.29380071 6.51972927 -2 3 C-1.34 2.01 -0.68 1.02 0 0 Z " transform="translate(11,18)" style="fill: #1C1C1C;"/><path d="M0 0 C3.39944431 1.94778971 5.2073375 3.11072461 6.54296875 6.8671875 C6.54296875 7.5890625 6.54296875 8.3109375 6.54296875 9.0546875 C3.25600642 9.85421888 1.83273683 10.15127686 -1.45703125 9.0546875 C-6.63712043 8.64028037 -10.55095819 9.53860025 -15.34375 11.30078125 C-17.38373007 12.02853754 -19.32432365 12.67061939 -21.45703125 13.0546875 C-23.26953125 11.9296875 -23.26953125 11.9296875 -24.45703125 10.0546875 C-24.45703125 7.6171875 -24.45703125 7.6171875 -23.45703125 5.0546875 C-17.12777803 -1.09875314 -8.36957472 -3.22009075 0 0 Z " transform="translate(82.45703125,20.9453125)" style="fill: #1C1C1C;"/><path d="M0 0 C2.05706292 0.62641405 4.01230023 1.38006904 6 2.19921875 C8.94105051 3.3767878 11.94409661 4.1723595 15 5 C14.67 5.99 14.34 6.98 14 8 C11.9375 8.6875 11.9375 8.6875 10 9 C10 11.64 10 14.28 10 17 C8.35 17.66 6.7 18.32 5 19 C6.07401108 21.91517292 6.77810176 23.77810176 9 26 C11.58354218 26.16687448 11.58354218 26.16687448 14 26 C13.67 27.32 13.34 28.64 13 30 C10.8125 30.3125 10.8125 30.3125 8 30 C7.236875 29.195625 6.47375 28.39125 5.6875 27.5625 C2.06988442 24.11314561 -0.10325556 24.24898701 -5 24 C-2.00435975 20.81109264 1.48111398 18.43571534 5.0390625 15.9140625 C7.36529441 13.64343773 7.68273079 12.18363242 8 9 C6.87980469 8.86722656 5.75960937 8.73445313 4.60546875 8.59765625 C3.13279271 8.41943431 1.66013753 8.24103989 0.1875 8.0625 C-0.55048828 7.97548828 -1.28847656 7.88847656 -2.04882812 7.79882812 C-5.16733121 7.41783454 -8.01108122 6.99630626 -11 6 C-10.6875 4.125 -10.6875 4.125 -10 2 C-6.22486447 -0.51675702 -4.4906709 -0.36808778 0 0 Z " transform="translate(35,24)" style="fill: #2D2D2D;"/><path d="M0 0 C0.495 0.99 0.495 0.99 1 2 C3.475 1.505 3.475 1.505 6 1 C-4.38723838 13.37468833 -30.80926346 17.63936832 -46 19 C-49.79308211 19.20794968 -53.57653771 19.29250292 -57.375 19.3125 C-58.27307373 19.31805908 -59.17114746 19.32361816 -60.09643555 19.3293457 C-64.3589316 19.28163576 -67.22800882 19.14179606 -71 17 C-67.44057186 15.81352395 -65.66525568 16.35319017 -62 17 C-52.46814924 17.46949551 -43.36737963 16.76921841 -34 15 C-34.99 14.67 -35.98 14.34 -37 14 C-36.13761719 13.81566406 -35.27523437 13.63132812 -34.38671875 13.44140625 C-23.81606725 10.92989982 -14.52451775 6.77092963 -4.84667969 1.8762207 C-3 1 -3 1 0 0 Z " transform="translate(90,74)" style="fill: #828282;"/><path d="M0 0 C0 2.31 0 4.62 0 7 C-2.64 7 -5.28 7 -8 7 C-8 5.02 -8 3.04 -8 1 C-8.99 0.67 -9.98 0.34 -11 0 C-11 1.98 -11 3.96 -11 6 C-14.63 6 -18.26 6 -22 6 C-22.33 5.34 -22.66 4.68 -23 4 C-23.33 4.66 -23.66 5.32 -24 6 C-25.32 6 -26.64 6 -28 6 C-28 3.69 -28 1.38 -28 -1 C-24.87709365 -0.51421457 -22.00419641 -0.0013988 -19 1 C-19 0.34 -19 -0.32 -19 -1 C-12.18491136 -1.82810601 -6.48129797 -2.50413785 0 0 Z " transform="translate(52,56)" style="fill: #4F4F4F;"/><path d="M0 0 C0 0.33 0 0.66 0 1 C-2.64 1.66 -5.28 2.32 -8 3 C-7.1639575 5.25759396 -7.1639575 5.25759396 -4.6015625 5.81640625 C-3.61929687 6.06261719 -2.63703125 6.30882812 -1.625 6.5625 C1.29285972 7.3054379 4.14248391 8.04749464 7 9 C9.14255793 8.61067144 9.14255793 8.61067144 11 8 C10.34 9.32 9.68 10.64 9 12 C6.36 12 3.72 12 1 12 C0.67 11.34 0.34 10.68 0 10 C-3.63 10 -7.26 10 -11 10 C-11.33 11.65 -11.66 13.3 -12 15 C-11.01 15.33 -10.02 15.66 -9 16 C-9.66 16.33 -10.32 16.66 -11 17 C-11.66 16.67 -12.32 16.34 -13 16 C-13.4140625 13.93359375 -13.4140625 13.93359375 -13.625 11.4375 C-13.69976563 10.61121094 -13.77453125 9.78492188 -13.8515625 8.93359375 C-13.90054687 8.29550781 -13.94953125 7.65742187 -14 7 C-15.52491998 10.04983996 -15.23562548 12.6423369 -15 16 C-13.72840348 17.85602615 -13.72840348 17.85602615 -12 19 C-11.34 19.66 -10.68 20.32 -10 21 C-13.375 20.75 -13.375 20.75 -17 20 C-18.70854635 17.92003053 -18.92932435 16.36347477 -19.4375 13.75 C-18.77193756 9.56646468 -16.59342135 6.30935176 -14 3 C-9.41201726 -0.05865516 -5.43293781 -0.12634739 0 0 Z " transform="translate(21,28)" style="fill: #8C8C8C;"/><path d="M0 0 C3.05198125 1.77211815 5.39455126 3.78910253 7 7 C7.46343537 12.74659864 7.46343537 12.74659864 7 15 C4.98046875 17.2578125 4.98046875 17.2578125 3 19 C3.08701172 17.64455078 3.08701172 17.64455078 3.17578125 16.26171875 C3.22089844 15.08222656 3.26601562 13.90273438 3.3125 12.6875 C3.39951172 10.92986328 3.39951172 10.92986328 3.48828125 9.13671875 C3.33460623 5.83628395 3.33460623 5.83628395 0.65625 4.109375 C-2.62368499 2.7395198 -4.46281135 2.51450352 -8 3 C-9.2676523 3.63245719 -10.51679508 4.30275537 -11.75 5 C-16.44734605 7.51964922 -20.76272029 7.88160875 -26 7 C-28.59719863 5.94359977 -29.88852364 4.94478086 -32 3 C-32 2.01 -32 1.02 -32 0 C-27.125 1.875 -27.125 1.875 -26 3 C-21.35409842 3.6081545 -17.48756339 3.65413099 -13.5625 0.9375 C-9.18112936 -1.91548554 -4.88953929 -1.41539295 0 0 Z " transform="translate(108,31)" style="fill: #252525;"/><path d="M0 0 C0.78375 0.886875 1.5675 1.77375 2.375 2.6875 C4.54120544 3.98269995 4.54120544 3.98269995 6.375 4.6875 C6.58368752 10.42640684 6.70188641 16.32696261 4.375 21.6875 C1.375 23.8125 1.375 23.8125 -1.625 24.6875 C-2.285 24.3575 -2.945 24.0275 -3.625 23.6875 C-2.635 22.45 -2.635 22.45 -1.625 21.1875 C1.00830607 17.2093269 0.9725849 14.39348109 0.375 9.6875 C-1.67167428 6.06646089 -3.01004131 4.9358487 -6.875 3.375 C-7.7825 3.148125 -8.69 2.92125 -9.625 2.6875 C-9.295 1.3675 -8.965 0.0475 -8.625 -1.3125 C-3.31288021 -2.91848971 -3.31288021 -2.91848971 0 0 Z " transform="translate(113.625,28.3125)" style="fill: #DEDEDE;"/><path d="M0 0 C0.66 2.97 1.32 5.94 2 9 C-7.42857143 12.42857143 -7.42857143 12.42857143 -13 12 C-13 9.03 -13 6.06 -13 3 C-11.39743892 2.49487756 -9.79288208 1.99608373 -8.1875 1.5 C-7.29417969 1.2215625 -6.40085937 0.943125 -5.48046875 0.65625 C-3 0 -3 0 0 0 Z " transform="translate(71,65)" style="fill: #EFEFEF;"/><path d="M0 0 C0.33 2.31 0.66 4.62 1 7 C-0.45449401 8.0055761 -1.91372443 9.00430435 -3.375 10 C-4.59316406 10.8353125 -4.59316406 10.8353125 -5.8359375 11.6875 C-8 13 -8 13 -10 13 C-11.87620422 9.83390538 -12.09662822 7.64167599 -12 4 C-10.3767313 3.3291288 -8.75132422 2.66342971 -7.125 2 C-6.22007813 1.62875 -5.31515625 1.2575 -4.3828125 0.875 C-2 0 -2 0 0 0 Z " transform="translate(86,59)" style="fill: #EFEFEF;"/><path d="M0 0 C0.77899658 0.0424585 1.55799316 0.08491699 2.3605957 0.12866211 C6.0193316 0.40610766 7.95229706 0.73903137 11.0625 2.8125 C10.13308594 2.80089844 9.20367187 2.78929687 8.24609375 2.77734375 C7.00988281 2.76832031 5.77367187 2.75929688 4.5 2.75 C3.28183594 2.73839844 2.06367187 2.72679687 0.80859375 2.71484375 C-2.84307745 2.72646534 -2.84307745 2.72646534 -6.03125 3.3125 C-11.97241394 4.07296898 -17.8926592 3.91578156 -23.875 3.875 C-25.13119141 3.87048828 -26.38738281 3.86597656 -27.68164062 3.86132812 C-30.76697663 3.84959681 -33.85221316 3.833181 -36.9375 3.8125 C-36.9375 3.4825 -36.9375 3.1525 -36.9375 2.8125 C-11.97728434 -0.67392282 -11.97728434 -0.67392282 0 0 Z " transform="translate(65.9375,4.1875)" style="fill: #9C9C9C;"/><path d="M0 0 C0.02689216 1.47906892 0.04634621 2.95827483 0.0625 4.4375 C0.07410156 5.26121094 0.08570313 6.08492188 0.09765625 6.93359375 C0 9 0 9 -1 10 C-4.00331018 10.14193337 -6.99217134 10.04236378 -10 10 C-10.33 7.03 -10.66 4.06 -11 1 C-3.375 0 -3.375 0 0 0 Z " transform="translate(55,69)" style="fill: #F0F0F0;"/><path d="M0 0 C0.33 0.66 0.66 1.32 1 2 C2.65 1.67 4.3 1.34 6 1 C3.27601722 4.28895699 -0.33322703 5.86148239 -4.125 7.625 C-4.79281494 7.93767822 -5.46062988 8.25035645 -6.14868164 8.57250977 C-11.15275495 10.82255796 -15.47102581 11.90300045 -21 12 C-18.10414095 9.70351643 -15.1827969 7.95652443 -11.875 6.3125 C-11.00617188 5.87550781 -10.13734375 5.43851562 -9.2421875 4.98828125 C-7 4 -7 4 -5 4 C-5 3.34 -5 2.68 -5 2 C-3.35 1.34 -1.7 0.68 0 0 Z " transform="translate(90,74)" style="fill: #969696;"/><path d="M0 0 C-0.28912441 2.79486926 -0.75738066 3.79651281 -2.9375 5.625 C-7.16033327 7.52096596 -11.45116138 8.24922081 -16 9 C-16.33 7.35 -16.66 5.7 -17 4 C-15.10751181 3.32389577 -13.2108398 2.65949561 -11.3125 2 C-10.25675781 1.62875 -9.20101562 1.2575 -8.11328125 0.875 C-5.21637944 0.0608143 -2.98299377 -0.17709796 0 0 Z " transform="translate(87,49)" style="fill: #F1F1F1;"/><path d="M0 0 C7.54491018 0.88023952 7.54491018 0.88023952 10.375 1.625 C12.11452693 2.20810381 12.11452693 2.20810381 14 1 C16.97 2.98 16.97 2.98 20 5 C19.67 5.99 19.34 6.98 19 8 C14.96479403 6.41037341 10.98188718 4.71767682 7 3 C7 3.66 7 4.32 7 5 C7.928125 5.268125 8.85625 5.53625 9.8125 5.8125 C12.76240366 6.91148371 14.05615186 7.62418561 16 10 C15.67 10.66 15.34 11.32 15 12 C14.34 11.401875 13.68 10.80375 13 10.1875 C5.82813286 4.95801354 -1.36388696 4.41741213 -10 4 C-10 3.67 -10 3.34 -10 3 C-5.38 3 -0.76 3 4 3 C4 2.34 4 1.68 4 1 C2.68 0.67 1.36 0.34 0 0 Z " transform="translate(73,9)" style="fill: #818181;"/><path d="M0 0 C3.68333764 0.5996131 7.34109482 1.26821896 11 2 C12.99897128 2.33944795 14.99875639 2.67421616 17 3 C17 4.32 17 5.64 17 7 C13.37 7 9.74 7 6 7 C5.67 6.34 5.34 5.68 5 5 C4.67 5.66 4.34 6.32 4 7 C2.68 7 1.36 7 0 7 C0 4.69 0 2.38 0 0 Z " transform="translate(24,55)" style="fill: #F8F8F8;"/><path d="M0 0 C1 1 1 1 1.0625 3.5625 C1.041875 4.366875 1.02125 5.17125 1 6 C-3.40914783 7.10228696 -7.48382401 7.07654536 -12 7 C-12 5.35 -12 3.7 -12 2 C-7.9088444 0.7165002 -4.3091525 -0.38021934 0 0 Z " transform="translate(68,55)" style="fill: #F1F1F1;"/><path d="M0 0 C3.2888768 1.0206859 4.01460383 2.02607591 5.73046875 5.08984375 C7.31915736 9.25059229 7.41048664 13.15310125 7.3125 17.5625 C7.31572266 18.29146484 7.31894531 19.02042969 7.32226562 19.77148438 C7.27826677 24.21536885 6.6589753 27.81620971 5 32 C4.67 32 4.34 32 4 32 C4.04640625 30.69546875 4.0928125 29.3909375 4.140625 28.046875 C4.38966725 17.87894702 4.282682 9.40660511 0 0 Z " transform="translate(2,47)" style="fill: #1F1F1F;"/><path d="M0 0 C-0.32004958 2.96045858 -0.59028996 4.57511551 -2.6875 6.75 C-5.4498306 8.24315168 -7.89686272 8.64737076 -11 9 C-11 7.35 -11 5.7 -11 4 C-4.5 0 -4.5 0 0 0 Z " transform="translate(101,43)" style="fill: #F0F0F0;"/><path d="M0 0 C10.23 0 20.46 0 31 0 C31 0.33 31 0.66 31 1 C26.05 1 21.1 1 16 1 C16 1.66 16 2.32 16 3 C17.1446875 3.1546875 17.1446875 3.1546875 18.3125 3.3125 C21.17059424 4.04364039 22.15742885 4.76951913 24 7 C23.01 7.495 23.01 7.495 22 8 C19.64018187 7.06421005 17.30368736 6.06652192 15 5 C15 4.01 15 3.02 15 2 C10.05 1.67 5.1 1.34 0 1 C0 0.67 0 0.34 0 0 Z " transform="translate(62,4)" style="fill: #D3D3D3;"/><path d="M0 0 C-2.77158697 3.38865728 -6.5592379 4.94287116 -10.4375 6.75 C-11.10587891 7.07871094 -11.77425781 7.40742187 -12.46289062 7.74609375 C-17.41123732 10.07068873 -17.41123732 10.07068873 -20.47265625 9.703125 C-21.22869141 9.35507813 -21.22869141 9.35507813 -22 9 C-20.51264437 6.02528873 -18.36195284 5.76652751 -15.3125 4.5625 C-11.93078214 3.2090096 -8.62897474 1.88274116 -5.4375 0.125 C-3 -1 -3 -1 0 0 Z " transform="translate(96,78)" style="fill: #EDEDED;"/><path d="M0 0 C5.65632268 -0.94611153 10.67029619 0.09653435 16 2 C18.2875976 1.72359986 18.2875976 1.72359986 20 1 C19.34 2.32 18.68 3.64 18 5 C15.36 5 12.72 5 10 5 C9.67 4.34 9.34 3.68 9 3 C5.37 3 1.74 3 -2 3 C-1.34 2.01 -0.68 1.02 0 0 Z " transform="translate(12,35)" style="fill: #1F1F1F;"/><path d="M0 0 C4.19469571 0.59924224 8.00999834 1.57499941 12 3 C11.67 3.99 11.34 4.98 11 6 C10.01 6.33 9.02 6.66 8 7 C8 6.34 8 5.68 8 5 C5.03 4.505 5.03 4.505 2 4 C1.67 5.32 1.34 6.64 1 8 C0.34 8 -0.32 8 -1 8 C-0.67 5.36 -0.34 2.72 0 0 Z " transform="translate(22,51)" style="fill: #1C1C1C;"/><path d="M0 0 C2.64 0 5.28 0 8 0 C7.34 2.97 6.68 5.94 6 9 C4.68 9.33 3.36 9.66 2 10 C2.66 8.02 3.32 6.04 4 4 C2.35 3.67 0.7 3.34 -1 3 C-0.67 2.01 -0.34 1.02 0 0 Z " transform="translate(61,40)" style="fill: #3D3D3D;"/><path d="M0 0 C-6.93 3.465 -6.93 3.465 -14 7 C-13.67 7.66 -13.34 8.32 -13 9 C-15.97 9.66 -18.94 10.32 -22 11 C-22 10.01 -22 9.02 -22 8 C-18.90352475 6.46312518 -15.79674718 4.94834718 -12.6875 3.4375 C-11.80642578 2.99986328 -10.92535156 2.56222656 -10.01757812 2.11132812 C-9.17001953 1.70205078 -8.32246094 1.29277344 -7.44921875 0.87109375 C-6.66893311 0.48880615 -5.88864746 0.10651855 -5.0847168 -0.28735352 C-3 -1 -3 -1 0 0 Z " transform="translate(85,78)" style="fill: #4D4D4D;"/><path d="M0 0 C2.97 0.495 2.97 0.495 6 1 C6.66 2.98 7.32 4.96 8 7 C7.34 7 6.68 7 6 7 C5.67 6.34 5.34 5.68 5 5 C4.67 5.66 4.34 6.32 4 7 C2.68 7 1.36 7 0 7 C0 4.69 0 2.38 0 0 Z " transform="translate(24,55)" style="fill: #D1D1D1;"/><path d="M0 0 C2.375 -0.125 2.375 -0.125 5 0 C7 2 7 2 7.125 4.625 C7.08375 5.40875 7.0425 6.1925 7 7 C5.35 7 3.7 7 2 7 C1.34 4.69 0.68 2.38 0 0 Z " transform="translate(36,71)" style="fill: #F6F6F6;"/><path d="M0 0 C2.31 0 4.62 0 7 0 C7 1.65 7 3.3 7 5 C4.69 5 2.38 5 0 5 C0 3.35 0 1.7 0 0 Z " transform="translate(44,57)" style="fill: #ECECEC;"/><path d="M0 0 C1.5078125 1.0625 1.5078125 1.0625 3 3 C3.1796875 6.25 3.1796875 6.25 2.875 10 C2.78992188 11.2375 2.70484375 12.475 2.6171875 13.75 C1.99908281 17.00482976 1.6132133 18.07893508 -1 20 C-1.66 19.67 -2.32 19.34 -3 19 C-2.50886719 18.49984375 -2.01773438 17.9996875 -1.51171875 17.484375 C0.54344718 14.106893 0.32839999 11.07236377 0.1875 7.25 C0.17396484 6.55261719 0.16042969 5.85523438 0.14648438 5.13671875 C0.1112945 3.42414459 0.05749155 1.71197059 0 0 Z " transform="translate(117,31)" style="fill: #989898;"/><path d="M0 0 C2.28369393 1.22968135 3.75423908 2.36346104 5.4375 4.3125 C5.1075 4.9725 4.7775 5.6325 4.4375 6.3125 C0.6464881 4.86299545 -2.9499638 3.16077434 -6.5625 1.3125 C-3.99362178 -0.40008548 -3.04679832 -0.8174337 0 0 Z " transform="translate(87.5625,10.6875)" style="fill: #6B6B6B;"/><path d="M0 0 C2.97 0 5.94 0 9 0 C9 0.99 9 1.98 9 3 C5.7 3 2.4 3 -1 3 C-0.67 2.01 -0.34 1.02 0 0 Z " transform="translate(53,45)" style="fill: #3B3B3B;"/><path d="M0 0 C0 0.33 0 0.66 0 1 C-1.670625 1.2165625 -1.670625 1.2165625 -3.375 1.4375 C-6.82142047 1.78372035 -6.82142047 1.78372035 -9 3 C-9.65772428 6.02934491 -9.65772428 6.02934491 -10 9 C-9.01 9.33 -8.02 9.66 -7 10 C-7.99 10.495 -7.99 10.495 -9 11 C-9.66 10.67 -10.32 10.34 -11 10 C-11.08096803 8.54257537 -11.13917774 7.08387193 -11.1875 5.625 C-11.22230469 4.81289063 -11.25710937 4.00078125 -11.29296875 3.1640625 C-11.19628906 2.44992188 -11.09960938 1.73578125 -11 1 C-6.8204355 -1.78637633 -4.85331323 -0.79562512 0 0 Z " transform="translate(19,34)" style="fill: #7F7F7F;"/><path d="M0 0 C4.03520597 1.58962659 8.01811282 3.28232318 12 5 C12 5.33 12 5.66 12 6 C4.69565217 6.36521739 4.69565217 6.36521739 1.5 4.6875 C0 3 0 3 0 0 Z " transform="translate(76,31)" style="fill: #161616;"/><path d="M0 0 C0 0.99 0 1.98 0 3 C-3.37097383 4.49821059 -5.20442119 5 -9 5 C-6.81610567 0.16423399 -5.20641855 -0.13701101 0 0 Z " transform="translate(71,25)" style="fill: #E5E5E5;"/><path d="M0 0 C3.10489399 0.10991566 6.20857994 0.24053415 9.3125 0.375 C10.63411133 0.42140625 10.63411133 0.42140625 11.98242188 0.46875 C12.82998047 0.50742188 13.67753906 0.54609375 14.55078125 0.5859375 C15.33106689 0.6173584 16.11135254 0.6487793 16.9152832 0.68115234 C19 1 19 1 22 3 C19.4580411 3.05434116 16.91726318 3.0938339 14.375 3.125 C13.66214844 3.14175781 12.94929688 3.15851562 12.21484375 3.17578125 C7.7387836 3.21684602 4.22050722 2.69086567 0 1 C0 0.67 0 0.34 0 0 Z " transform="translate(55,4)" style="fill: #7E7E7E;"/><path d="M0 0 C0 1.98 0 3.96 0 6 C0.66 6 1.32 6 2 6 C3.5 7.375 3.5 7.375 5 9 C5.66 9.66 6.32 10.32 7 11 C3.625 10.75 3.625 10.75 0 10 C-2.28830211 7.21424091 -2.28510306 4.51627102 -2 1 C-1 0 -1 0 0 0 Z " transform="translate(4,38)" style="fill: #AAAAAA;"/><path d="M0 0 C-2.35735884 2.72957339 -4.58133526 3.88893396 -8 5 C-8.99 5 -9.98 5 -11 5 C-11 4.34 -11 3.68 -11 3 C-9.73581754 2.30034557 -8.46334598 1.61565237 -7.1875 0.9375 C-6.47980469 0.55464844 -5.77210937 0.17179687 -5.04296875 -0.22265625 C-3 -1 -3 -1 0 0 Z " transform="translate(96,78)" style="fill: #E7E7E7;"/><path d="M0 0 C0.33 0 0.66 0 1 0 C1.21755666 5.4389165 1.10428384 9.87080814 -1 15 C-1.33 15 -1.66 15 -2 15 C-2.19392201 9.47322267 -1.7479503 5.24385089 0 0 Z " transform="translate(8,64)" style="fill: #363636;"/><path d="M0 0 C0.66 0 1.32 0 2 0 C1.67 2.97 1.34 5.94 1 9 C0.01 8.67 -0.98 8.34 -2 8 C-1.125 2.25 -1.125 2.25 0 0 Z " transform="translate(20,51)" style="fill: #E5E5E5;"/><path d="M0 0 C2.3828125 -0.29296875 2.3828125 -0.29296875 5.125 -0.1875 C6.03507812 -0.16042969 6.94515625 -0.13335937 7.8828125 -0.10546875 C8.58148438 -0.07066406 9.28015625 -0.03585938 10 0 C9.67 0.99 9.34 1.98 9 3 C5.37 3 1.74 3 -2 3 C-1.34 2.01 -0.68 1.02 0 0 Z " transform="translate(12,35)" style="fill: #171717;"/><path d="M0 0 C3.77545388 1.09068668 6.47043472 1.9083091 9 5 C8.01 5.495 8.01 5.495 7 6 C4.64018187 5.06421005 2.30368736 4.06652192 0 3 C0 2.01 0 1.02 0 0 Z " transform="translate(77,6)" style="fill: #ADADAD;"/><path d="M0 0 C-1.47692308 4.67692308 -1.47692308 4.67692308 -4.125 6.3125 C-5.053125 6.6528125 -5.053125 6.6528125 -6 7 C-4.89473684 0 -4.89473684 0 0 0 Z " transform="translate(96,55)" style="fill: #E9E9E9;"/><path d="M0 0 C0 0.66 0 1.32 0 2 C-1.98 2.33 -3.96 2.66 -6 3 C-6.33 3.99 -6.66 4.98 -7 6 C-7.66 5.34 -8.32 4.68 -9 4 C-8.34 4 -7.68 4 -7 4 C-7 3.34 -7 2.68 -7 2 C-7.66 1.67 -8.32 1.34 -9 1 C-2.25 -1.125 -2.25 -1.125 0 0 Z " transform="translate(76,50)" style="fill: #4D4D4D;"/><path d="M0 0 C-2.76223278 2.76223278 -5.20706617 2.57856291 -9 3 C-9 2.01 -9 1.02 -9 0 C-5.93109813 -1.53445094 -3.29905734 -0.54984289 0 0 Z " transform="translate(72,86)" style="fill: #6E6E6E;"/><path d="M0 0 C0.33 0 0.66 0 1 0 C1 1.65 1 3.3 1 5 C1.66 5 2.32 5 3 5 C1.25 9.875 1.25 9.875 -1 11 C-0.67 7.37 -0.34 3.74 0 0 Z " transform="translate(112,39)" style="fill: #393939;"/><path d="M0 0 C0.66 0 1.32 0 2 0 C3.4606285 2.64738916 4 3.89448334 4 7 C3.01 7 2.02 7 1 7 C0.67 4.69 0.34 2.38 0 0 Z " transform="translate(23,69)" style="fill: #D8D8D8;"/><path d="M0 0 C4.75 0.75 4.75 0.75 7 3 C6.01 3 5.02 3 4 3 C3.67 3.66 3.34 4.32 3 5 C2.01 3.35 1.02 1.7 0 0 Z " transform="translate(91,15)" style="fill: #B2B2B2;"/><path d="M0 0 C3.3 0 6.6 0 10 0 C9.67 0.99 9.34 1.98 9 3 C8.1646875 2.7834375 8.1646875 2.7834375 7.3125 2.5625 C4.88615805 1.97230872 2.45093655 1.476571 0 1 C0 0.67 0 0.34 0 0 Z " transform="translate(27,8)" style="fill: #D6D6D6;"/></svg>